<svg width="32" height="33" viewBox="0 0 32 33" fill="none" xmlns="http://www.w3.org/2000/svg">
<path d="M29.3 15.32C28.11 13.23 21.36 1.17 21.36 1.17C21.2735 1.0137 21.1468 0.883413 20.9929 0.792691C20.839 0.701969 20.6636 0.654121 20.485 0.654121C20.3064 0.654121 20.131 0.701969 19.9771 0.792691C19.8232 0.883413 19.6965 1.0137 19.61 1.17L13.61 11.81L10.61 6.53C10.5235 6.3737 10.3968 6.24341 10.2429 6.15269C10.089 6.06197 9.91363 6.01412 9.735 6.01412C9.55637 6.01412 9.381 6.06197 9.22712 6.15269C9.07325 6.24341 8.94648 6.3737 8.86 6.53C8.86 6.53 3.4 16.43 2.42 18.15C1.46071 19.6794 0.967313 21.4549 0.999999 23.26C0.999999 28.37 4.88 32.91 9.67 33H20.48C26.28 33 31 27.62 31 21.44C31.0398 19.2782 30.4491 17.1516 29.3 15.32ZM19.48 31H12.54C11.3386 30.9643 10.197 30.4677 9.35184 29.6132C8.50663 28.7586 8.02258 27.6117 8 26.41C7.99204 25.5697 8.25503 24.7491 8.75 24.07L12.1 18.86C12.1453 18.7898 12.2075 18.7321 12.2809 18.6922C12.3543 18.6522 12.4365 18.6313 12.52 18.6313C12.6035 18.6313 12.6857 18.6522 12.7591 18.6922C12.8325 18.7321 12.8947 18.7898 12.94 18.86L14.72 21.63V21.55C15.35 20.44 18.95 14.07 18.95 14.07C18.9936 13.993 19.0568 13.929 19.1333 13.8845C19.2097 13.84 19.2966 13.8165 19.385 13.8165C19.4734 13.8165 19.5603 13.84 19.6367 13.8845C19.7131 13.929 19.7764 13.993 19.82 14.07C19.82 14.07 23.42 20.45 24.05 21.55C24.6737 22.5041 25.0039 23.6201 25 24.76C25 31 20.1 31 19.48 31Z" fill="#FFA8A2"/>
</svg>
